<svg width="35" height="25" viewBox="0 0 35 25" fill="none" xmlns="http://www.w3.org/2000/svg">
<path d="M10.3392 13.6H6.61922V17.24H5.35922V13.6H1.63922V12.42H5.35922V8.76H6.61922V12.42H10.3392V13.6Z" fill="white"/>
<path d="M32.2375 7.84964C32.123 7.68402 31.9388 7.58165 31.7387 7.57302L19.3325 7.03323C18.9766 7.01751 18.6791 7.2949 18.6639 7.65253C18.6488 8.01003 18.9231 8.31209 19.2774 8.32745L30.8437 8.83073L28.5695 15.993H18.4491L16.6208 5.94398C16.5806 5.72374 16.4308 5.54 16.2242 5.45818L13.2296 4.27067C12.8995 4.14024 12.5271 4.30388 12.3975 4.63662C12.2681 4.96953 12.4302 5.34569 12.76 5.47652L15.4227 6.53238L17.2833 16.7578C17.3394 17.0652 17.6048 17.2885 17.9146 17.2885H18.2232L17.5185 19.2645C17.4595 19.4301 17.4838 19.6139 17.5842 19.7577C17.6844 19.9016 17.8475 19.9871 18.0215 19.9871H18.5159C18.2096 20.3312 18.0215 20.7843 18.0215 21.2826C18.0215 22.3541 18.8853 23.2258 19.9466 23.2258C21.008 23.2258 21.8717 22.3541 21.8717 21.2826C21.8717 20.7844 21.6837 20.3312 21.3774 19.9871H25.5747C25.2682 20.3312 25.0802 20.7843 25.0802 21.2826C25.0802 22.3541 25.9438 23.2258 27.0053 23.2258C28.0669 23.2258 28.9305 22.3541 28.9305 21.2826C28.9305 20.7844 28.7425 20.3312 28.4362 19.9871H29.0374C29.3328 19.9871 29.5722 19.7455 29.5722 19.4474C29.5722 19.1492 29.3328 18.9076 29.0374 18.9076H18.7824L19.3599 17.2883H29.0374C29.3164 17.2883 29.5634 17.1063 29.6484 16.8383L32.3221 8.41767C32.3835 8.22548 32.352 8.01536 32.2375 7.84964ZM19.9467 22.1465C19.4748 22.1465 19.0911 21.7591 19.0911 21.2828C19.0911 20.8065 19.4748 20.4192 19.9467 20.4192C20.4186 20.4192 20.8023 20.8065 20.8023 21.2828C20.8023 21.7591 20.4186 22.1465 19.9467 22.1465ZM27.0053 22.1465C26.5335 22.1465 26.1498 21.7591 26.1498 21.2828C26.1498 20.8065 26.5335 20.4192 27.0053 20.4192C27.4772 20.4192 27.8609 20.8065 27.8609 21.2828C27.8609 21.7591 27.4772 22.1465 27.0053 22.1465Z" fill="#F9F9FF"/>
</svg>
