<svg width="20" height="19" viewBox="0 0 20 19" fill="none" xmlns="http://www.w3.org/2000/svg">
<path d="M19.8846 3.62383C19.7701 3.45821 19.5859 3.35583 19.3858 3.3472L6.97958 2.80741C6.62363 2.79169 6.32617 3.06909 6.31095 3.42672C6.29582 3.78421 6.57019 4.08627 6.92444 4.10163L18.4907 4.60492L16.2165 11.7672H6.0962L4.26781 1.71817C4.22762 1.49792 4.07782 1.31418 3.87122 1.23237L0.876628 0.0448575C0.546586 -0.0855719 0.174159 0.0780635 0.0445415 0.410801C-0.0848524 0.743719 0.0772145 1.11987 0.407077 1.25071L3.06975 2.30657L4.9304 12.532C4.98649 12.8394 5.2519 13.0626 5.56167 13.0626H5.87031L5.16552 15.0387C5.10653 15.2043 5.13083 15.3881 5.23122 15.5319C5.33148 15.6757 5.49453 15.7613 5.66859 15.7613H6.16294C5.85662 16.1054 5.66859 16.5585 5.66859 17.0568C5.66859 18.1283 6.53236 19 7.5937 19C8.65503 19 9.51881 18.1283 9.51881 17.0568C9.51881 16.5586 9.33078 16.1054 9.02451 15.7613H13.2217C12.9153 16.1054 12.7273 16.5585 12.7273 17.0568C12.7273 18.1283 13.5908 19 14.6524 19C15.714 19 16.5775 18.1283 16.5775 17.0568C16.5775 16.5586 16.3895 16.1054 16.0833 15.7613H16.6845C16.9799 15.7613 17.2192 15.5197 17.2192 15.2216C17.2192 14.9234 16.9798 14.6818 16.6845 14.6818H6.42947L7.00693 13.0625H16.6844C16.9635 13.0625 17.2104 12.8805 17.2954 12.6125L19.9692 4.19185C20.0306 3.99967 19.9991 3.78954 19.8846 3.62383ZM7.59374 17.9206C7.12187 17.9206 6.73812 17.5333 6.73812 17.057C6.73812 16.5807 7.12187 16.1934 7.59374 16.1934C8.06562 16.1934 8.44933 16.5807 8.44933 17.057C8.44933 17.5333 8.06562 17.9206 7.59374 17.9206ZM14.6524 17.9206C14.1805 17.9206 13.7968 17.5333 13.7968 17.057C13.7968 16.5807 14.1805 16.1934 14.6524 16.1934C15.1243 16.1934 15.508 16.5807 15.508 17.057C15.508 17.5333 15.1243 17.9206 14.6524 17.9206Z" fill="#2D3C88"/>
</svg>
