<svg xmlns="http://www.w3.org/2000/svg" width="78" height="78" fill="none" viewBox="0 0 78 78">
  <path fill="#2D3C88" d="M62.86 34.726l-.67-.5a2.242 2.242 0 01-.719-2.684l.33-.768a5.295 5.295 0 00-.285-4.772 5.294 5.294 0 00-3.991-2.633l-.83-.099a2.241 2.241 0 01-1.964-1.964l-.099-.83A5.295 5.295 0 0052 16.485a5.292 5.292 0 00-4.773-.284l-.768.329c-.957.41-2.06.114-2.684-.72l-.5-.668A5.293 5.293 0 0039 13.002c-1.7 0-3.257.78-4.275 2.14l-.501.668a2.24 2.24 0 01-2.684.72l-.767-.33a5.293 5.293 0 00-4.773.285 5.293 5.293 0 00-2.632 3.991l-.1.83a2.241 2.241 0 01-1.965 1.964l-.829.1a5.293 5.293 0 00-3.99 2.632 5.294 5.294 0 00-.285 4.772l.33.768c.409.956.113 2.06-.72 2.684l-.669.5A5.295 5.295 0 0013 39.001c0 1.7.78 3.258 2.14 4.276l.67.5a2.242 2.242 0 01.719 2.684l-.33.767a5.295 5.295 0 00.284 4.773 5.293 5.293 0 003.992 2.632l.829.1a2.241 2.241 0 011.965 1.964l.099.83A5.295 5.295 0 0026 61.517a5.295 5.295 0 004.773.285l.768-.33a2.241 2.241 0 012.683.72l.5.669A5.294 5.294 0 0039 65c1.699 0 3.257-.78 4.275-2.14l.5-.669a2.24 2.24 0 012.685-.719l.767.329A5.295 5.295 0 0052 61.518a5.296 5.296 0 002.632-3.991l.1-.83a2.241 2.241 0 011.964-1.965l.83-.098A5.295 5.295 0 0061.515 52a5.294 5.294 0 00.284-4.773l-.328-.767a2.241 2.241 0 01.72-2.684l.668-.5A5.294 5.294 0 0065 39c0-1.699-.78-3.257-2.14-4.275zm-1.218 6.924l-.668.5a4.266 4.266 0 00-1.37 5.11l.329.768c.415.968.35 2.046-.176 2.957a3.28 3.28 0 01-2.473 1.632l-.83.099a4.267 4.267 0 00-3.74 3.74l-.099.83a3.281 3.281 0 01-1.63 2.473c-.913.526-1.99.59-2.958.176l-.768-.33a4.267 4.267 0 00-5.11 1.37l-.5.669a3.281 3.281 0 01-2.65 1.326 3.281 3.281 0 01-2.649-1.326l-.5-.669a4.266 4.266 0 00-5.11-1.37l-.767.33a3.282 3.282 0 01-2.958-.176 3.28 3.28 0 01-1.63-2.473l-.1-.83a4.267 4.267 0 00-3.74-3.74l-.83-.1a3.28 3.28 0 01-2.473-1.63 3.281 3.281 0 01-.176-2.957l.33-.768a4.268 4.268 0 00-1.37-5.11l-.669-.5A3.28 3.28 0 0115.031 39a3.28 3.28 0 011.327-2.649l.668-.5a4.266 4.266 0 001.37-5.11l-.33-.768a3.281 3.281 0 01.176-2.957 3.281 3.281 0 012.473-1.631l.83-.1a4.266 4.266 0 003.74-3.74l.1-.83a3.28 3.28 0 011.63-2.472 3.28 3.28 0 012.958-.176l.767.328a4.267 4.267 0 005.11-1.369l.5-.668A3.281 3.281 0 0139 15.032c1.052 0 2.018.484 2.649 1.327l.5.669a4.266 4.266 0 005.11 1.369l.768-.33a3.281 3.281 0 012.957.177 3.28 3.28 0 011.631 2.473l.1.829a4.267 4.267 0 003.74 3.74l.83.1a3.281 3.281 0 012.472 1.63c.527.913.59 1.99.176 2.958l-.328.768a4.267 4.267 0 001.369 5.11l.668.5a3.28 3.28 0 011.326 2.65 3.28 3.28 0 01-1.326 2.648z"/>
  <path fill="#2D3C88" d="M39 18.903c-3.064 0-6.006.672-8.744 1.998a1.016 1.016 0 10.884 1.828A17.894 17.894 0 0139 20.934c9.961 0 18.065 8.105 18.065 18.066 0 9.962-8.104 18.066-18.065 18.066-9.962 0-18.066-8.104-18.066-18.066 0-4.08 1.327-7.93 3.838-11.133a1.016 1.016 0 00-1.6-1.254A19.898 19.898 0 0018.903 39c0 11.082 9.016 20.097 20.098 20.097 11.081 0 20.097-9.015 20.097-20.097 0-11.081-9.016-20.097-20.097-20.097z"/>
  <path fill="#2D3C88" d="M24.15 33.829l-.773.986a1.016 1.016 0 101.598 1.254l.425-.541v6.717h-.68a1.015 1.015 0 100 2.031h3.356a1.016 1.016 0 000-2.031h-.645v-7.79c0-.56-.455-1.015-1.016-1.015H24.95c-.311 0-.606.143-.799.389zM32.312 44.276h.527a3.045 3.045 0 003.042-3.042v-4.923a3.045 3.045 0 00-3.042-3.042h-.527a3.045 3.045 0 00-3.042 3.042v4.923a3.045 3.045 0 003.042 3.042zm-1.01-7.965c0-.557.453-1.01 1.01-1.01h.527c.557 0 1.01.453 1.01 1.01v4.923c0 .557-.453 1.01-1.01 1.01h-.527c-.557 0-1.01-.453-1.01-1.01v-4.923zM40.497 44.276a3.045 3.045 0 003.041-3.042v-4.923a3.045 3.045 0 00-3.041-3.042h-.528a3.045 3.045 0 00-3.042 3.042v4.923a3.045 3.045 0 003.042 3.042h.528zm-1.538-3.042v-4.923c0-.557.453-1.01 1.01-1.01h.528c.557 0 1.01.453 1.01 1.01v4.923c0 .557-.453 1.01-1.01 1.01h-.528c-.557 0-1.01-.452-1.01-1.01zM53.91 33.146a1.016 1.016 0 00-1.42.224l-6.453 8.874a1.015 1.015 0 101.643 1.195l6.453-8.874c.33-.454.23-1.09-.224-1.42zM29.852 29.278c.237 0 .475-.082.668-.25a12.888 12.888 0 018.48-3.18c2.92 0 5.673.952 7.963 2.752a1.016 1.016 0 101.256-1.597 14.78 14.78 0 00-9.22-3.186 14.92 14.92 0 00-9.815 3.68 1.016 1.016 0 00.668 1.781zM29.665 50.494a14.779 14.779 0 009.218 3.185c2.345 0 4.59-.528 6.672-1.57a1.016 1.016 0 00-.908-1.817 12.763 12.763 0 01-5.764 1.356c-2.92 0-5.673-.95-7.963-2.75a1.016 1.016 0 00-1.255 1.596zM48.973 48.757a1.027 1.027 0 00-1.042-.432 1.026 1.026 0 00-.81.864c-.054.414.161.83.53 1.028.369.197.834.143 1.15-.133.379-.334.446-.908.172-1.327zM47.25 32.952a2.393 2.393 0 00-2.391 2.39 2.393 2.393 0 002.39 2.39 2.393 2.393 0 002.39-2.39 2.393 2.393 0 00-2.39-2.39zm0 2.749a.36.36 0 110-.72.36.36 0 010 .72zM50.496 41.531a2.393 2.393 0 002.39 2.39 2.393 2.393 0 002.39-2.39 2.393 2.393 0 00-2.39-2.39 2.393 2.393 0 00-2.39 2.39zm2.748 0a.359.359 0 11-.718 0 .359.359 0 01.718 0zM26.15 24.523c.163.392.562.645.986.625.42-.02.788-.306.917-.703.13-.402-.012-.86-.348-1.116a1.028 1.028 0 00-1.182-.039c-.4.265-.555.791-.374 1.233z"/>
</svg>
