<svg width="18" height="18" viewBox="0 0 18 18" fill="none" xmlns="http://www.w3.org/2000/svg">
<path fill-rule="evenodd" clip-rule="evenodd" d="M0 9C0 4.02964 4.02964 0 9 0C13.9704 0 18 4.02964 18 9C18 13.9704 13.9704 18 9 18C4.02964 18 0 13.9704 0 9ZM11.6824 14.438C13.1887 14.438 14.4138 13.2129 14.4138 11.7067V6.34185C14.4138 4.8358 13.1887 3.61051 11.6824 3.61051H6.31759C4.81154 3.61051 3.58624 4.8358 3.58624 6.34185V11.7067C3.58624 13.2129 4.81154 14.438 6.31759 14.438H11.6824ZM11.6824 4.78893H6.3176C5.46129 4.78893 4.76462 5.4856 4.76462 6.3419V11.7067C4.76462 12.563 5.46129 13.2599 6.3176 13.2599H11.6824C12.5387 13.2599 13.2356 12.5632 13.2356 11.7067V6.3419C13.2356 5.4856 12.5389 4.78893 11.6824 4.78893ZM9.00001 11.813C7.46248 11.813 6.21151 10.5621 6.21151 9.02432C6.21151 7.48678 7.46248 6.23582 9.00001 6.23582C10.5377 6.23582 11.7887 7.48678 11.7887 9.02432C11.7887 10.5619 10.5375 11.813 9.00001 11.813ZM11.8783 6.81237C11.5144 6.81237 11.2184 6.51637 11.2184 6.15259C11.2184 5.78882 11.5144 5.49282 11.8783 5.49282C12.2421 5.49282 12.5381 5.78882 12.5381 6.15259C12.5381 6.51637 12.2421 6.81237 11.8783 6.81237ZM8.99996 7.41441C8.11238 7.41441 7.38963 8.13676 7.38963 9.02434C7.38963 9.91233 8.11238 10.6349 8.99996 10.6349C9.88795 10.6349 10.6101 9.91233 10.6101 9.02434C10.6101 8.13696 9.88775 7.41441 8.99996 7.41441Z" fill="url(#paint0_linear_5279:1206)"/>
<defs>
<linearGradient id="paint0_linear_5279:1206" x1="17.2464" y1="1.0027" x2="-1.88888e-06" y2="17.1461" gradientUnits="userSpaceOnUse">
<stop stop-color="#7938AD"/>
<stop offset="0.301674" stop-color="#C02F77"/>
<stop offset="0.486932" stop-color="#E7112F"/>
<stop offset="0.667708" stop-color="#F76800"/>
<stop offset="0.90625" stop-color="#F8D501"/>
</linearGradient>
</defs>
</svg>
