<svg width="17" height="17" viewBox="0 0 17 17" fill="none" xmlns="http://www.w3.org/2000/svg">
<path opacity="0.4" d="M15.9233 15.182L12.3265 11.586C13.2886 10.4558 13.8694 8.99261 13.8694 7.39579C13.8694 3.8255 10.9649 0.925 7.39721 0.925C3.82617 0.925 0.925 3.82888 0.925 7.39579C0.925 10.9627 3.82952 13.8666 7.39721 13.8666C8.99438 13.8666 10.4579 13.2859 11.5883 12.324L15.1852 15.92C15.2856 16.0205 15.4211 16.075 15.5542 16.075C15.6858 16.075 15.8221 16.0248 15.9238 15.9195C16.1256 15.7172 16.1254 15.3841 15.9233 15.182ZM1.96988 7.39579C1.96988 4.40399 4.40465 1.973 7.39388 1.973C10.3864 1.973 12.8179 4.40726 12.8179 7.39579C12.8179 10.3844 10.3863 12.8219 7.39388 12.8219C4.40471 12.8219 1.96988 10.3876 1.96988 7.39579Z" fill="#2D3C88" stroke="#2D3C88" stroke-width="0.15"/>
</svg>
