<svg xmlns="http://www.w3.org/2000/svg" width="78" height="78" fill="none" viewBox="0 0 78 78">
  <g clip-path="url(#clip0_10_146)">
    <path fill="#2D3C88" d="M29.539 48.856a.996.996 0 100 1.993.996.996 0 000-1.993z"/>
    <path fill="#2D3C88" d="M58.838 30.927l5.87-5.87a.997.997 0 00-.41-1.656l-14.294-4.412a9.94 9.94 0 00-9.508-6.988 9.964 9.964 0 00-9.24 6.238l-16.557 5.163a.996.996 0 00-.408 1.655l6.025 6.024-3.8 6.333a.996.996 0 00.54 1.457l5.51 1.837v15.32c0 .415.258.787.646.933 3.37 1.263 15.89 5.959 15.957 5.983.197.07.42.079.637.008l.009-.002 17.93-5.977a.996.996 0 00.68-.945v-15.73l5.877-1.847a.996.996 0 00.406-1.654l-5.87-5.87zm-8.381-8.965c0-.253-.01-.506-.03-.757l11.704 3.612-4.97 4.97-8.122-2.707a9.99 9.99 0 001.418-5.118zm-17.499-2.593a7.972 7.972 0 017.538-5.376 7.952 7.952 0 017.969 7.969c0 1.85-.614 3.584-1.776 5.015a7.94 7.94 0 01-6.193 2.954 7.976 7.976 0 01-6.548-3.427 7.91 7.91 0 01-1.42-4.542c0-.89.144-1.762.43-2.593zm-16.093 5.444l13.776-4.296a9.9 9.9 0 00.998 6.003l-9.8 3.267-4.974-4.974zm1.998 12.561l3.15-5.25 15.994 5.332-3.15 5.25-15.994-5.332zm19.64 23.194l-13.945-5.23V41.372C35.53 45.01 34.995 44.9 35.3 44.9c.343 0 .67-.177.854-.484l2.35-3.915v20.068zm.997-24.715l-14.78-4.926 8.048-2.683a9.967 9.967 0 007.728 3.679c2.783 0 5.399-1.146 7.28-3.164l6.503 2.168-14.78 4.926zM56.433 55.31l-15.937 5.313v-20.88l3.531 4.413a.996.996 0 001.077.328l11.33-3.56V55.31zM45.157 42.38l-3.987-4.983 15.99-5.33 4.977 4.976-16.98 5.337z"/>
    <path fill="#2D3C88" d="M35.865 51.067l-2.215-.831a.996.996 0 00-.7 1.865l2.216.831a.996.996 0 10.7-1.865zM35.865 55.322L29.89 53.08a.996.996 0 00-.7 1.865l5.977 2.241a.994.994 0 001.282-.583.996.996 0 00-.583-1.282zM46.18 18.268a.996.996 0 00-1.408 0L39.5 23.541l-1.288-1.288a.996.996 0 00-1.409 1.409l1.992 1.992a.996.996 0 001.41 0l5.976-5.977a.996.996 0 000-1.409z"/>
  </g>
  <defs>
    <clipPath id="clip0_10_146">
      <path fill="#fff" d="M0 0h51v51H0z" transform="translate(14 12)"/>
    </clipPath>
  </defs>
</svg>
