<svg width="11" height="19" viewBox="0 0 11 19" fill="none" xmlns="http://www.w3.org/2000/svg">
<path d="M1.08698 0.495033C0.90326 0.684645 0.80005 0.941778 0.80005 1.20989C0.80005 1.478 0.90326 1.73513 1.08698 1.92475L8.23412 9.29878L1.08698 16.6728C0.908465 16.8635 0.809686 17.1189 0.811919 17.384C0.814152 17.6491 0.917217 17.9027 1.09892 18.0902C1.28062 18.2777 1.52641 18.384 1.78337 18.3863C2.04032 18.3886 2.28787 18.2867 2.4727 18.1025L10.3127 10.0136C10.4964 9.82402 10.5996 9.56689 10.5996 9.29878C10.5996 9.03067 10.4964 8.77353 10.3127 8.58392L2.4727 0.495033C2.28892 0.305479 2.0397 0.198994 1.77984 0.198994C1.51998 0.198994 1.27076 0.305479 1.08698 0.495033Z" fill="#2D3C88"/>
</svg>
