<svg width="11" height="19" viewBox="0 0 11 19" fill="none" xmlns="http://www.w3.org/2000/svg">
<path d="M9.91302 0.494911C10.0967 0.684523 10.1999 0.941656 10.1999 1.20977C10.1999 1.47788 10.0967 1.73501 9.91302 1.92462L2.76588 9.29866L9.91302 16.6727C10.0915 16.8634 10.1903 17.1188 10.1881 17.3839C10.1858 17.649 10.0828 17.9026 9.90108 18.0901C9.71938 18.2776 9.47359 18.3839 9.21663 18.3862C8.95968 18.3885 8.71213 18.2866 8.5273 18.1024L0.6873 10.0135C0.503578 9.8239 0.400369 9.56677 0.400369 9.29866C0.400369 9.03055 0.503578 8.77341 0.6873 8.5838L8.5273 0.494911C8.71108 0.305357 8.9603 0.198872 9.22016 0.198872C9.48002 0.198872 9.72924 0.305357 9.91302 0.494911Z" fill="#2D3C88"/>
</svg>
