<svg width="15" height="15" viewBox="0 0 15 15" fill="none" xmlns="http://www.w3.org/2000/svg">
<g opacity="0.2" clip-path="url(#clip0_667_7729)">
<path d="M14.375 2.5H10V1.875C9.99944 1.37789 9.80172 0.901301 9.45021 0.549791C9.0987 0.198282 8.62211 0.000558307 8.125 0L6.875 0C6.37789 0.000558307 5.9013 0.198282 5.54979 0.549791C5.19828 0.901301 5.00056 1.37789 5 1.875V2.5H0.625V3.75H1.31563L2.38023 13.3321C2.43081 13.7909 2.64898 14.2148 2.9929 14.5226C3.33682 14.8304 3.78228 15.0004 4.24383 15H10.7562C11.2177 15.0004 11.6632 14.8304 12.0071 14.5226C12.3511 14.2148 12.5692 13.7908 12.6198 13.332L13.6844 3.75H14.375V2.5ZM6.25 1.875C6.25019 1.7093 6.31609 1.55043 6.43326 1.43326C6.55043 1.31609 6.7093 1.25019 6.875 1.25H8.125C8.2907 1.25019 8.44957 1.31609 8.56674 1.43326C8.68391 1.55043 8.74981 1.7093 8.75 1.875V2.5H6.25V1.875ZM11.3773 13.194C11.3605 13.3469 11.2878 13.4882 11.1731 13.5908C11.0585 13.6935 10.91 13.7501 10.7562 13.75H4.24383C4.08999 13.7501 3.94151 13.6935 3.82688 13.5909C3.71224 13.4883 3.63952 13.347 3.62266 13.1941L2.57328 3.75H12.4267L11.3773 13.194Z" fill="#2D3C88"/>
<path d="M6.875 5H8.12501V12.5H6.875V5Z" fill="#2D3C88"/>
<path d="M9.38037 12.4443L10.005 4.94088L11.2513 5.04463L10.6266 12.5481L9.38037 12.4443Z" fill="#2D3C88"/>
<path d="M3.75342 5.05469L4.99967 4.95094L5.62433 12.4544L4.37808 12.5581L3.75342 5.05469Z" fill="#2D3C88"/>
</g>
<defs>
<clipPath id="clip0_667_7729">
<rect width="15" height="15" fill="white"/>
</clipPath>
</defs>
</svg>
