<svg xmlns="http://www.w3.org/2000/svg" width="78" height="78" fill="none" viewBox="0 0 78 78">
  <path fill="#2D3C88" d="M66.7 36.372l-1.684-6.733c.46-.098.806-.506.806-.995V27.56a4.28 4.28 0 00-4.275-4.275h-7.666v-2.24c0-1.16-.944-2.103-2.104-2.103H12.696c-1.16 0-2.104.944-2.104 2.104V39.5a1.018 1.018 0 102.036 0V21.045c0-.038.03-.068.068-.068h39.081c.038 0 .068.03.068.068V39.5a1.018 1.018 0 002.035 0v-1.154h12.012a3.33 3.33 0 013.162 2.307H65.89c-.562 0-1.018.456-1.018 1.018v2.171a3.192 3.192 0 003.189 3.19h1.153v4.477h-2.66c-.875-2.524-3.275-4.342-6.092-4.342-2.818 0-5.218 1.818-6.092 4.342h-.49v-7.667a1.018 1.018 0 00-2.035 0v7.667H30.729c-.874-2.524-3.274-4.342-6.092-4.342-2.817 0-5.217 1.818-6.091 4.342h-5.85a.068.068 0 01-.068-.068v-2.239h4.41a1.018 1.018 0 000-2.035h-9.77a1.018 1.018 0 000 2.035h3.324v2.24c0 1.16.944 2.103 2.104 2.103h5.497l-.001.067a6.453 6.453 0 006.445 6.446 6.453 6.453 0 006.446-6.446l-.002-.067h22.937l-.002.067a6.453 6.453 0 006.446 6.446 6.453 6.453 0 006.445-6.446l-.001-.067h3.326c.562 0 1.018-.456 1.018-1.018V41.67a5.368 5.368 0 00-4.55-5.299zM53.88 25.32h7.667a2.242 2.242 0 012.24 2.24v.067H53.88V25.32zm0 10.992v-6.65h9.044l1.662 6.65H53.88zM24.637 58.023a4.415 4.415 0 01-4.41-4.41 4.415 4.415 0 014.41-4.41 4.415 4.415 0 014.41 4.41 4.415 4.415 0 01-4.41 4.41zm35.825 0a4.415 4.415 0 01-4.41-4.41 4.415 4.415 0 014.41-4.41 4.415 4.415 0 014.41 4.41 4.415 4.415 0 01-4.41 4.41zm8.753-13.027H68.06a1.155 1.155 0 01-1.153-1.154V42.69h2.306v2.307z"/>
  <path fill="#2D3C88" d="M24.637 51.51c-1.16 0-2.103.943-2.103 2.103 0 1.16.943 2.103 2.103 2.103 1.16 0 2.103-.944 2.103-2.103 0-1.16-.943-2.104-2.103-2.104zM60.462 51.51c-1.16 0-2.104.943-2.104 2.103 0 1.16.944 2.103 2.104 2.103 1.16 0 2.103-.944 2.103-2.103 0-1.16-.943-2.104-2.103-2.104zM48.52 47.167H33.322a1.018 1.018 0 000 2.036H48.52a1.018 1.018 0 000-2.036zM22.466 42.825H9.44a1.018 1.018 0 000 2.035h13.027a1.018 1.018 0 000-2.035zM41.64 29.01a1.018 1.018 0 00-1.438 0l-9.051 9.05-4.709-4.708a1.018 1.018 0 00-1.439 1.44l5.428 5.428a1.014 1.014 0 001.44 0l9.77-9.77a1.018 1.018 0 000-1.44z"/>
</svg>
