<svg xmlns="http://www.w3.org/2000/svg" width="16" height="16" fill="none" viewBox="0 0 16 16">
  <path fill="#fff" fill-rule="evenodd" d="M15.476 3.353V9.22a3.36 3.36 0 01-3.364 3.353H9.084l-4.037 3.018v-3.018H3.364A3.36 3.36 0 010 9.22V3.353A3.36 3.36 0 013.364 0h8.748a3.36 3.36 0 013.364 3.353zM10.16 9.385a.331.331 0 010 .476L8.617 11.4s-1.48-.185-3.738-2.438C2.618 6.71 2.43 5.237 2.43 5.237l1.548-1.542a.336.336 0 01.474 0l1.665 1.66a.337.337 0 010 .476l-.713.71 1.905 1.895.713-.71a.34.34 0 01.477 0l1.663 1.659zm.438-2.68h.673A3.699 3.699 0 007.57 3.019v.67a3.026 3.026 0 013.028 3.018zm-.841-.167h-.673c0-.832-.68-1.509-1.514-1.509v-.67c1.206 0 2.187.977 2.187 2.18zm2.355.335h.673c0-2.865-2.34-5.197-5.215-5.197v.671c2.504 0 4.542 2.03 4.542 4.526z" clip-rule="evenodd"/>
</svg>
