<svg xmlns="http://www.w3.org/2000/svg" width="18" height="18" fill="none" viewBox="0 0 18 18">
  <path fill="#fff" fill-rule="evenodd" d="M18 9A9 9 0 110 9a9 9 0 0118 0zm-8.633 3.947H8.66s-1.558.094-2.931-1.335C4.232 10.054 2.91 6.961 2.91 6.961s-.076-.203.007-.301c.093-.11.346-.117.346-.117l1.689-.011s.159.026.273.11a.528.528 0 01.146.198s.273.69.635 1.314C6.71 9.374 7.04 9.64 7.279 9.51c.35-.19.245-1.723.245-1.723s.006-.556-.176-.804c-.141-.192-.407-.248-.524-.264-.095-.012.06-.233.263-.332.303-.149.84-.157 1.474-.15.494.004.636.035.83.082.448.108.434.455.403 1.203-.009.223-.019.483-.019.782 0 .068-.002.14-.004.213-.01.384-.022.822.23.985.129.084.445.013 1.237-1.33.375-.638.656-1.386.656-1.386s.061-.134.157-.191c.098-.059.23-.04.23-.04l1.776-.012s.534-.063.62.178c.091.253-.199.843-.925 1.81-.69.92-1.024 1.258-.993 1.557.023.218.24.415.658.803.875.811 1.108 1.238 1.163 1.34a.478.478 0 00.01.017c.392.65-.434.7-.434.7l-1.578.022s-.339.068-.785-.239c-.234-.16-.462-.422-.68-.671-.332-.381-.639-.733-.901-.65-.44.14-.426 1.087-.426 1.087s.003.203-.097.31c-.11.118-.322.141-.322.141z" clip-rule="evenodd"/>
</svg>
