<svg xmlns="http://www.w3.org/2000/svg" width="15" height="15" fill="none" viewBox="0 0 15 15">
  <path fill="#2D3C88" fill-rule="evenodd" d="M1.252 10.685L0 14.4l4.075-1.06a7.18 7.18 0 003.327.812c3.95 0 7.151-3.168 7.151-7.076C14.553 3.168 11.351 0 7.402 0 3.452 0 .251 3.168.251 7.076c0 1.319.366 2.552 1 3.61zm9.164-2.578s1.218.706 1.548 1.324a.672.672 0 01-.12.795l-.442.437c-1.399 1.384-2.979.703-4.378-.682L5.745 8.715 4.466 7.45c-1.4-1.385-2.088-2.948-.689-4.332l.441-.437a.69.69 0 01.804-.12c.624.327 1.337 1.532 1.337 1.532.158.273.175.601-.105.757 0 0-.474.392-.543.491-.311.455-.299.876.13 1.302l1 .988.999.988c.43.426.855.438 1.315.13.1-.068.496-.538.496-.538.157-.277.49-.26.765-.104z" clip-rule="evenodd"/>
</svg>
